<mxfile host="app.diagrams.net" modified="2023-02-16T18:34:34.734Z" agent="5.0 (X11; Linux x86_64) AppleWebKit/537.36 (KHTML, like Gecko) Chrome/109.0.0.0 Safari/537.36" etag="sGdf6PiYN2QddUKTP7Yu" version="20.8.20" type="github">
  <diagram name="Page-1" id="gUwcajvdTrA4dJSvttMt">
    <mxGraphModel dx="1434" dy="809" grid="1" gridSize="10" guides="1" tooltips="1" connect="1" arrows="1" fold="1" page="1" pageScale="1" pageWidth="850" pageHeight="1100" math="0" shadow="0">
      <root>
        <mxCell id="0" />
        <mxCell id="1" parent="0" />
        <mxCell id="uQOL99ZEiOv9VLpuQH1R-3" style="edgeStyle=orthogonalEdgeStyle;rounded=0;orthogonalLoop=1;jettySize=auto;html=1;entryX=1;entryY=1;entryDx=0;entryDy=0;labelBackgroundColor=none;strokeColor=#E07A5F;fontColor=default;" edge="1" parent="1" source="uQOL99ZEiOv9VLpuQH1R-1" target="uQOL99ZEiOv9VLpuQH1R-2">
          <mxGeometry relative="1" as="geometry">
            <Array as="points">
              <mxPoint x="340" y="360" />
              <mxPoint x="340" y="268" />
            </Array>
          </mxGeometry>
        </mxCell>
        <mxCell id="uQOL99ZEiOv9VLpuQH1R-6" style="edgeStyle=orthogonalEdgeStyle;rounded=0;orthogonalLoop=1;jettySize=auto;html=1;entryX=0.088;entryY=0.775;entryDx=0;entryDy=0;entryPerimeter=0;labelBackgroundColor=none;strokeColor=#E07A5F;fontColor=default;" edge="1" parent="1" source="uQOL99ZEiOv9VLpuQH1R-1" target="uQOL99ZEiOv9VLpuQH1R-5">
          <mxGeometry relative="1" as="geometry">
            <Array as="points">
              <mxPoint x="500" y="320" />
              <mxPoint x="500" y="252" />
            </Array>
          </mxGeometry>
        </mxCell>
        <mxCell id="uQOL99ZEiOv9VLpuQH1R-50" style="edgeStyle=orthogonalEdgeStyle;rounded=0;orthogonalLoop=1;jettySize=auto;html=1;labelBackgroundColor=none;strokeColor=#E07A5F;fontColor=default;" edge="1" parent="1" source="uQOL99ZEiOv9VLpuQH1R-1" target="uQOL99ZEiOv9VLpuQH1R-51">
          <mxGeometry relative="1" as="geometry">
            <mxPoint x="110" y="360" as="targetPoint" />
          </mxGeometry>
        </mxCell>
        <mxCell id="uQOL99ZEiOv9VLpuQH1R-1" value="Shop" style="ellipse;whiteSpace=wrap;html=1;labelBackgroundColor=none;fillColor=#F2CC8F;strokeColor=#E07A5F;fontColor=#393C56;" vertex="1" parent="1">
          <mxGeometry x="365" y="320" width="120" height="80" as="geometry" />
        </mxCell>
        <mxCell id="uQOL99ZEiOv9VLpuQH1R-18" value="" style="edgeStyle=orthogonalEdgeStyle;rounded=0;orthogonalLoop=1;jettySize=auto;html=1;labelBackgroundColor=none;strokeColor=#E07A5F;fontColor=default;" edge="1" parent="1" source="uQOL99ZEiOv9VLpuQH1R-2" target="uQOL99ZEiOv9VLpuQH1R-17">
          <mxGeometry relative="1" as="geometry" />
        </mxCell>
        <mxCell id="uQOL99ZEiOv9VLpuQH1R-20" value="" style="edgeStyle=orthogonalEdgeStyle;rounded=0;orthogonalLoop=1;jettySize=auto;html=1;labelBackgroundColor=none;strokeColor=#E07A5F;fontColor=default;" edge="1" parent="1" source="uQOL99ZEiOv9VLpuQH1R-2" target="uQOL99ZEiOv9VLpuQH1R-19">
          <mxGeometry relative="1" as="geometry" />
        </mxCell>
        <mxCell id="uQOL99ZEiOv9VLpuQH1R-22" value="" style="edgeStyle=orthogonalEdgeStyle;rounded=0;orthogonalLoop=1;jettySize=auto;html=1;labelBackgroundColor=none;strokeColor=#E07A5F;fontColor=default;" edge="1" parent="1" source="uQOL99ZEiOv9VLpuQH1R-2" target="uQOL99ZEiOv9VLpuQH1R-21">
          <mxGeometry relative="1" as="geometry" />
        </mxCell>
        <mxCell id="uQOL99ZEiOv9VLpuQH1R-33" style="edgeStyle=orthogonalEdgeStyle;rounded=0;orthogonalLoop=1;jettySize=auto;html=1;entryX=0;entryY=0.5;entryDx=0;entryDy=0;labelBackgroundColor=none;strokeColor=#E07A5F;fontColor=default;" edge="1" parent="1" source="uQOL99ZEiOv9VLpuQH1R-2" target="uQOL99ZEiOv9VLpuQH1R-34">
          <mxGeometry relative="1" as="geometry">
            <mxPoint x="330" y="520" as="targetPoint" />
          </mxGeometry>
        </mxCell>
        <mxCell id="uQOL99ZEiOv9VLpuQH1R-2" value="Customer" style="ellipse;whiteSpace=wrap;html=1;aspect=fixed;labelBackgroundColor=none;fillColor=#F2CC8F;strokeColor=#E07A5F;fontColor=#393C56;" vertex="1" parent="1">
          <mxGeometry x="230" y="200" width="80" height="80" as="geometry" />
        </mxCell>
        <mxCell id="uQOL99ZEiOv9VLpuQH1R-8" value="" style="edgeStyle=orthogonalEdgeStyle;rounded=0;orthogonalLoop=1;jettySize=auto;html=1;labelBackgroundColor=none;strokeColor=#E07A5F;fontColor=default;" edge="1" parent="1" source="uQOL99ZEiOv9VLpuQH1R-5" target="uQOL99ZEiOv9VLpuQH1R-7">
          <mxGeometry relative="1" as="geometry" />
        </mxCell>
        <mxCell id="uQOL99ZEiOv9VLpuQH1R-10" value="" style="edgeStyle=orthogonalEdgeStyle;rounded=0;orthogonalLoop=1;jettySize=auto;html=1;labelBackgroundColor=none;strokeColor=#E07A5F;fontColor=default;" edge="1" parent="1" source="uQOL99ZEiOv9VLpuQH1R-5" target="uQOL99ZEiOv9VLpuQH1R-9">
          <mxGeometry relative="1" as="geometry" />
        </mxCell>
        <mxCell id="uQOL99ZEiOv9VLpuQH1R-12" style="edgeStyle=orthogonalEdgeStyle;rounded=0;orthogonalLoop=1;jettySize=auto;html=1;entryX=0.5;entryY=0;entryDx=0;entryDy=0;labelBackgroundColor=none;strokeColor=#E07A5F;fontColor=default;" edge="1" parent="1" source="uQOL99ZEiOv9VLpuQH1R-5" target="uQOL99ZEiOv9VLpuQH1R-11">
          <mxGeometry relative="1" as="geometry" />
        </mxCell>
        <mxCell id="uQOL99ZEiOv9VLpuQH1R-16" value="" style="edgeStyle=orthogonalEdgeStyle;rounded=0;orthogonalLoop=1;jettySize=auto;html=1;labelBackgroundColor=none;strokeColor=#E07A5F;fontColor=default;" edge="1" parent="1" source="uQOL99ZEiOv9VLpuQH1R-5" target="uQOL99ZEiOv9VLpuQH1R-15">
          <mxGeometry relative="1" as="geometry" />
        </mxCell>
        <mxCell id="uQOL99ZEiOv9VLpuQH1R-24" value="" style="edgeStyle=orthogonalEdgeStyle;rounded=0;orthogonalLoop=1;jettySize=auto;html=1;labelBackgroundColor=none;strokeColor=#E07A5F;fontColor=default;" edge="1" parent="1" source="uQOL99ZEiOv9VLpuQH1R-5" target="uQOL99ZEiOv9VLpuQH1R-7">
          <mxGeometry relative="1" as="geometry" />
        </mxCell>
        <mxCell id="uQOL99ZEiOv9VLpuQH1R-25" style="edgeStyle=orthogonalEdgeStyle;rounded=0;orthogonalLoop=1;jettySize=auto;html=1;labelBackgroundColor=none;strokeColor=#E07A5F;fontColor=default;" edge="1" parent="1" source="uQOL99ZEiOv9VLpuQH1R-5" target="uQOL99ZEiOv9VLpuQH1R-26">
          <mxGeometry relative="1" as="geometry">
            <mxPoint x="660" y="280" as="targetPoint" />
            <Array as="points">
              <mxPoint x="640" y="235" />
              <mxPoint x="640" y="290" />
            </Array>
          </mxGeometry>
        </mxCell>
        <mxCell id="uQOL99ZEiOv9VLpuQH1R-5" value="Product" style="ellipse;whiteSpace=wrap;html=1;aspect=fixed;labelBackgroundColor=none;fillColor=#F2CC8F;strokeColor=#E07A5F;fontColor=#393C56;" vertex="1" parent="1">
          <mxGeometry x="520" y="190" width="90" height="90" as="geometry" />
        </mxCell>
        <mxCell id="uQOL99ZEiOv9VLpuQH1R-7" value="Price" style="ellipse;whiteSpace=wrap;html=1;labelBackgroundColor=none;fillColor=#F2CC8F;strokeColor=#E07A5F;fontColor=#393C56;" vertex="1" parent="1">
          <mxGeometry x="670" y="130" width="80" height="80" as="geometry" />
        </mxCell>
        <mxCell id="uQOL99ZEiOv9VLpuQH1R-9" value="Numbers" style="ellipse;whiteSpace=wrap;html=1;labelBackgroundColor=none;fillColor=#F2CC8F;strokeColor=#E07A5F;fontColor=#393C56;" vertex="1" parent="1">
          <mxGeometry x="520" y="30" width="80" height="80" as="geometry" />
        </mxCell>
        <mxCell id="uQOL99ZEiOv9VLpuQH1R-11" value="Desc" style="ellipse;whiteSpace=wrap;html=1;labelBackgroundColor=none;fillColor=#F2CC8F;strokeColor=#E07A5F;fontColor=#393C56;" vertex="1" parent="1">
          <mxGeometry x="530" y="330" width="80" height="80" as="geometry" />
        </mxCell>
        <mxCell id="uQOL99ZEiOv9VLpuQH1R-15" value="Picture" style="ellipse;whiteSpace=wrap;html=1;labelBackgroundColor=none;fillColor=#F2CC8F;strokeColor=#E07A5F;fontColor=#393C56;" vertex="1" parent="1">
          <mxGeometry x="425" y="90" width="80" height="80" as="geometry" />
        </mxCell>
        <mxCell id="uQOL99ZEiOv9VLpuQH1R-17" value="Username" style="ellipse;whiteSpace=wrap;html=1;labelBackgroundColor=none;fillColor=#F2CC8F;strokeColor=#E07A5F;fontColor=#393C56;" vertex="1" parent="1">
          <mxGeometry x="230" y="40" width="80" height="80" as="geometry" />
        </mxCell>
        <mxCell id="uQOL99ZEiOv9VLpuQH1R-19" value="Password" style="ellipse;whiteSpace=wrap;html=1;labelBackgroundColor=none;fillColor=#F2CC8F;strokeColor=#E07A5F;fontColor=#393C56;" vertex="1" parent="1">
          <mxGeometry x="70" y="200" width="80" height="80" as="geometry" />
        </mxCell>
        <mxCell id="uQOL99ZEiOv9VLpuQH1R-21" value="Person" style="ellipse;whiteSpace=wrap;html=1;aspect=fixed;labelBackgroundColor=none;fillColor=#F2CC8F;strokeColor=#E07A5F;fontColor=#393C56;" vertex="1" parent="1">
          <mxGeometry x="345" y="190" width="80" height="80" as="geometry" />
        </mxCell>
        <mxCell id="uQOL99ZEiOv9VLpuQH1R-26" value="Category" style="ellipse;whiteSpace=wrap;html=1;aspect=fixed;labelBackgroundColor=none;fillColor=#F2CC8F;strokeColor=#E07A5F;fontColor=#393C56;" vertex="1" parent="1">
          <mxGeometry x="660" y="250" width="80" height="80" as="geometry" />
        </mxCell>
        <mxCell id="uQOL99ZEiOv9VLpuQH1R-36" value="" style="edgeStyle=orthogonalEdgeStyle;rounded=0;orthogonalLoop=1;jettySize=auto;html=1;labelBackgroundColor=none;strokeColor=#E07A5F;fontColor=default;" edge="1" parent="1" source="uQOL99ZEiOv9VLpuQH1R-34" target="uQOL99ZEiOv9VLpuQH1R-35">
          <mxGeometry relative="1" as="geometry" />
        </mxCell>
        <mxCell id="uQOL99ZEiOv9VLpuQH1R-37" style="edgeStyle=orthogonalEdgeStyle;rounded=0;orthogonalLoop=1;jettySize=auto;html=1;labelBackgroundColor=none;strokeColor=#E07A5F;fontColor=default;" edge="1" parent="1" source="uQOL99ZEiOv9VLpuQH1R-34" target="uQOL99ZEiOv9VLpuQH1R-38">
          <mxGeometry relative="1" as="geometry">
            <mxPoint x="420" y="700" as="targetPoint" />
          </mxGeometry>
        </mxCell>
        <mxCell id="uQOL99ZEiOv9VLpuQH1R-40" style="edgeStyle=orthogonalEdgeStyle;rounded=0;orthogonalLoop=1;jettySize=auto;html=1;labelBackgroundColor=none;strokeColor=#E07A5F;fontColor=default;" edge="1" parent="1" source="uQOL99ZEiOv9VLpuQH1R-34" target="uQOL99ZEiOv9VLpuQH1R-39">
          <mxGeometry relative="1" as="geometry" />
        </mxCell>
        <mxCell id="uQOL99ZEiOv9VLpuQH1R-47" style="edgeStyle=orthogonalEdgeStyle;rounded=0;orthogonalLoop=1;jettySize=auto;html=1;entryX=0;entryY=0.5;entryDx=0;entryDy=0;labelBackgroundColor=none;strokeColor=#E07A5F;fontColor=default;" edge="1" parent="1" source="uQOL99ZEiOv9VLpuQH1R-34" target="uQOL99ZEiOv9VLpuQH1R-46">
          <mxGeometry relative="1" as="geometry">
            <Array as="points">
              <mxPoint x="350" y="550" />
              <mxPoint x="390" y="550" />
              <mxPoint x="390" y="510" />
            </Array>
          </mxGeometry>
        </mxCell>
        <mxCell id="uQOL99ZEiOv9VLpuQH1R-49" style="edgeStyle=orthogonalEdgeStyle;rounded=0;orthogonalLoop=1;jettySize=auto;html=1;entryX=0.5;entryY=1;entryDx=0;entryDy=0;labelBackgroundColor=none;strokeColor=#E07A5F;fontColor=default;" edge="1" parent="1" source="uQOL99ZEiOv9VLpuQH1R-34" target="uQOL99ZEiOv9VLpuQH1R-48">
          <mxGeometry relative="1" as="geometry">
            <Array as="points">
              <mxPoint x="340" y="520" />
              <mxPoint x="325" y="520" />
            </Array>
          </mxGeometry>
        </mxCell>
        <mxCell id="uQOL99ZEiOv9VLpuQH1R-34" value="Card" style="ellipse;whiteSpace=wrap;html=1;aspect=fixed;labelBackgroundColor=none;fillColor=#F2CC8F;strokeColor=#E07A5F;fontColor=#393C56;" vertex="1" parent="1">
          <mxGeometry x="300" y="570" width="80" height="80" as="geometry" />
        </mxCell>
        <mxCell id="uQOL99ZEiOv9VLpuQH1R-35" value="make Time" style="ellipse;whiteSpace=wrap;html=1;labelBackgroundColor=none;fillColor=#F2CC8F;strokeColor=#E07A5F;fontColor=#393C56;" vertex="1" parent="1">
          <mxGeometry x="240" y="710" width="80" height="80" as="geometry" />
        </mxCell>
        <mxCell id="uQOL99ZEiOv9VLpuQH1R-38" value="recieve Time" style="ellipse;whiteSpace=wrap;html=1;aspect=fixed;labelBackgroundColor=none;fillColor=#F2CC8F;strokeColor=#E07A5F;fontColor=#393C56;" vertex="1" parent="1">
          <mxGeometry x="380" y="710" width="80" height="80" as="geometry" />
        </mxCell>
        <mxCell id="uQOL99ZEiOv9VLpuQH1R-42" style="edgeStyle=orthogonalEdgeStyle;rounded=0;orthogonalLoop=1;jettySize=auto;html=1;entryX=0;entryY=1;entryDx=0;entryDy=0;labelBackgroundColor=none;strokeColor=#E07A5F;fontColor=default;" edge="1" parent="1" source="uQOL99ZEiOv9VLpuQH1R-39" target="uQOL99ZEiOv9VLpuQH1R-5">
          <mxGeometry relative="1" as="geometry">
            <Array as="points">
              <mxPoint x="520" y="610" />
              <mxPoint x="520" y="267" />
            </Array>
          </mxGeometry>
        </mxCell>
        <mxCell id="uQOL99ZEiOv9VLpuQH1R-39" value="Product List" style="ellipse;whiteSpace=wrap;html=1;aspect=fixed;labelBackgroundColor=none;fillColor=#F2CC8F;strokeColor=#E07A5F;fontColor=#393C56;" vertex="1" parent="1">
          <mxGeometry x="425" y="570" width="80" height="80" as="geometry" />
        </mxCell>
        <mxCell id="uQOL99ZEiOv9VLpuQH1R-46" value="Phone" style="ellipse;whiteSpace=wrap;html=1;aspect=fixed;labelBackgroundColor=none;fillColor=#F2CC8F;strokeColor=#E07A5F;fontColor=#393C56;" vertex="1" parent="1">
          <mxGeometry x="410" y="470" width="80" height="80" as="geometry" />
        </mxCell>
        <mxCell id="uQOL99ZEiOv9VLpuQH1R-48" value="Address" style="ellipse;whiteSpace=wrap;html=1;aspect=fixed;labelBackgroundColor=none;fillColor=#F2CC8F;strokeColor=#E07A5F;fontColor=#393C56;" vertex="1" parent="1">
          <mxGeometry x="285" y="410" width="80" height="80" as="geometry" />
        </mxCell>
        <mxCell id="uQOL99ZEiOv9VLpuQH1R-51" value="Admin" style="ellipse;whiteSpace=wrap;html=1;aspect=fixed;labelBackgroundColor=none;fillColor=#F2CC8F;strokeColor=#E07A5F;fontColor=#393C56;" vertex="1" parent="1">
          <mxGeometry x="80" y="320" width="80" height="80" as="geometry" />
        </mxCell>
      </root>
    </mxGraphModel>
  </diagram>
</mxfile>
